<svg width="512" height="512" xmlns="http://www.w3.org/2000/svg">
 <title>Egg</title>

 <g>
  <title>Layer 1</title>
  <path fill="#FFB27C" opacity="NaN" d="m56,198.8l44,6.2" id="svg_3"/>
  <path fill="#FFB27C" opacity="NaN" d="m116,213.8" id="svg_5"/>
  <path fill="#FFB27C" opacity="NaN" d="m107,269.8" id="svg_7"/>
  <g stroke="null" id="svg_32">
   <g stroke="null" id="svg_14">
    <g stroke="null" id="svg_9">
     <path stroke="null" id="svg_2" fill-rule="evenodd" clip-rule="evenodd" fill="#E7831E" d="m296.28876,426.37128c0,2.87057 -2.22153,5.20072 -4.96165,5.20072l0,0c-2.73677,0 -4.9583,-2.33015 -4.9583,-5.20072l0,-32.36238c0,-2.87408 2.22153,-5.20423 4.9583,-5.20423l0,0c2.74011,0 4.96165,2.33015 4.96165,5.20423l0,32.36238z"/>
     <path stroke="null" id="svg_4" fill-rule="evenodd" clip-rule="evenodd" fill="#E7831E" d="m317.35986,412.13772c2.01075,1.94764 2.14124,5.23581 0.28104,7.3519l0,0c-1.85685,2.11257 -4.99845,2.24242 -7.0092,0.29127l-22.66699,-21.95392c-2.01745,-1.94764 -2.14124,-5.23932 -0.28104,-7.3519l0,0c1.85685,-2.11257 4.9951,-2.24242 7.0092,-0.29127l22.66699,21.95392z"/>
     <path stroke="null" id="svg_6" fill-rule="evenodd" clip-rule="evenodd" fill="#E7831E" d="m265.29102,412.13772c-2.0141,1.94764 -2.14124,5.23581 -0.27769,7.3519l0,0c1.85685,2.11257 4.9951,2.24242 7.0092,0.29127l22.66699,-21.95392c2.0141,-1.94764 2.14124,-5.23932 0.28104,-7.3519l0,0c-1.8602,-2.11257 -4.9951,-2.24242 -7.0092,-0.29127l-22.67034,21.95392z"/>
    </g>
    <g stroke="null" id="svg_13">
     <path stroke="null" id="svg_10" fill-rule="evenodd" clip-rule="evenodd" fill="#E7831E" d="m223.90829,426.37128c0,2.87057 -2.21819,5.20072 -4.96165,5.20072l0,0c-2.73677,0 -4.9583,-2.33015 -4.9583,-5.20072l0,-32.36238c0,-2.87408 2.22153,-5.20423 4.9583,-5.20423l0,0c2.74346,0 4.96165,2.33015 4.96165,5.20423l0,32.36238z"/>
     <path stroke="null" id="svg_11" fill-rule="evenodd" clip-rule="evenodd" fill="#E7831E" d="m244.98274,412.13772c2.01075,1.94764 2.14124,5.23581 0.27769,7.3519l0,0c-1.85685,2.11257 -4.9951,2.24242 -7.0092,0.29127l-22.66699,-21.95392c-2.01745,-1.94764 -2.14124,-5.23932 -0.28104,-7.3519l0,0c1.8602,-2.11257 4.9951,-2.24242 7.0092,-0.29127l22.67034,21.95392z"/>
     <path stroke="null" id="svg_12" fill-rule="evenodd" clip-rule="evenodd" fill="#E7831E" d="m192.91056,412.13772c-2.0141,1.94764 -2.13789,5.23581 -0.27769,7.3519l0,0c1.8602,2.11257 4.9951,2.24242 7.0092,0.29127l22.66699,-21.95392c2.01745,-1.94764 2.14124,-5.23932 0.28104,-7.3519l0,0c-1.85685,-2.11257 -4.9951,-2.24242 -7.0092,-0.29127l-22.67034,21.95392z"/>
    </g>
   </g>
   <g stroke="null" id="svg_22">
    <g stroke="null" id="svg_21">
     <path stroke="null" id="svg_19" fill-rule="evenodd" clip-rule="evenodd" fill="#F2B02A" d="m173.97524,272.25064l-13.54745,-46.65972c-3.1049,-10.7022 -14.7914,-16.99171 -26.10305,-14.05096l0,0c-11.30502,2.93761 -17.95601,13.99446 -14.84779,24.69353c0,0 3.29066,14.52487 5.50655,18.97523c5.55631,11.16984 15.56762,20.97444 48.99174,17.04192z"/>
     <path stroke="null" id="svg_20" fill-rule="evenodd" clip-rule="evenodd" fill="#F2B02A" d="m346.59593,272.33586l13.7898,-42.16741c3.1646,-9.67181 15.05969,-15.35578 26.57315,-12.69816l0,0c11.51683,2.65479 18.28508,12.6471 15.12386,22.31608c0,0 -3.35711,13.12644 -5.60981,17.14832c-5.65709,10.09442 -15.85,18.95505 -49.877,15.40116z"/>
    </g>
    <g stroke="null" id="svg_18">
     <path stroke="null" id="svg_15" fill-rule="evenodd" clip-rule="evenodd" fill="#FDBD2C" d="m364.84476,284.41476c0,62.02263 -47.93358,112.29626 -107.0618,112.29626l-3.9914,0c-59.12822,0 -107.0618,-50.27363 -107.0618,-112.29626l0,-127.21061c0,-62.02263 47.93358,-112.29626 107.0618,-112.29626l3.9914,0c59.12822,0 107.0618,50.27363 107.0618,112.29626l0,127.21061z"/>
     <path stroke="null" id="svg_17" fill-rule="evenodd" clip-rule="evenodd" fill="#F4C778" d="m322.22078,327.02768c0,38.48253 -29.74311,69.67983 -66.43185,69.67983l0,0c-36.69209,0 -66.43185,-31.20082 -66.43185,-69.67983l0,-22.72596c0,-38.48604 29.74311,-69.68334 66.43185,-69.68334l0,0c36.69209,0 66.43185,31.20082 66.43185,69.68334l0,22.72596z"/>
    </g>
   </g>
   <g stroke="null" id="svg_31">
    <g stroke="null" id="svg_29">
     <g stroke="null" id="svg_25">
      <circle stroke="null" id="svg_23" fill-rule="evenodd" clip-rule="evenodd" fill="#1A1A1A" r="11.90929" cy="164.18178" cx="206.29997"/>
      <path stroke="null" id="svg_24" fill-rule="evenodd" clip-rule="evenodd" fill="#FFFFFF" d="m199.29997,164.51388c0,-3.02573 2.23492,-5.4814 5.00514,-5.4814c2.78361,0 5.01183,2.45567 5.01183,5.4814c0,3.01842 -2.22822,5.47409 -5.01183,5.47409c-2.77022,0 -5.00514,-2.45567 -5.00514,-5.47409z"/>
     </g>
     <g stroke="null" id="svg_28">
      <circle stroke="null" id="svg_26" fill-rule="evenodd" clip-rule="evenodd" fill="#1A1A1A" r="11.90628" cy="164.18178" cx="303.2712"/>
      <path stroke="null" id="svg_27" fill-rule="evenodd" clip-rule="evenodd" fill="#FFFFFF" d="m295.27454,164.51388c0,-3.02573 2.23492,-5.4814 5.00514,-5.4814c2.78361,0 5.00848,2.45567 5.00848,5.4814c0,3.01842 -2.22488,5.47409 -5.00848,5.47409c-2.77022,0 -5.00514,-2.45567 -5.00514,-5.47409z"/>
     </g>
    </g>
    <polygon stroke="null" id="svg_30" fill-rule="evenodd" clip-rule="evenodd" fill="#E7831E" points="254.78558349609375,227.38229370117188 242.1355743408203,203.45051068826433 229.48553466796875,179.51872767535679 254.78558349609375,179.51872767535679 280.0889587402344,179.51872767535679 267.43896484375,203.45051068826433 "/>
   </g>
  </g>
  <path fill="#FFB27C" id="svg_1" d="m256,480c-52.57,0 -96.72,-17.54 -127.7,-50.73c-31.6,-33.87 -53.82,-140.17 -48.3,-142.72c5.52,-2.55 351,-8.05 352,0c1,8.05 -16.7,108.85 -48.3,142.72c-30.98,33.19 -75.13,50.73 -127.7,50.73z"/>
  <path fill="#FFB27C" opacity="NaN" d="m79,286.8c0,0 -6,-44 -6,-44.8c0,0.8 39,46.8 39,46c0,0.8 43,-72.2 43,-73c0,0.8 28,83.8 28,83c0,0.8 54,-76.2 54,-77c0,0.8 32,70.8 32,70c0,0.8 40,-62.2 40,-63c0,0.8 28,71.8 28,71c0,0.8 33,-57.2 33,-58c0,0.8 9,43.8 9,43c0,0.8 52,-49.2 52,-50c0,0.8 -1,55.8 -1,55" id="svg_8"/>
  <path id="svg_34" d="m184,60.8l-23,24.2l46,12l59,-3l38,-7l24,-10l24,8l-16,-27l-79,-19l-39,7" opacity="NaN" fill="#FFB27C"/>
 </g>
</svg>