<svg width="512" height="512" xmlns="http://www.w3.org/2000/svg">
 <title>Egg</title>

 <g>
  <title>Layer 1</title>
  <path d="m256,480c-52.57,0 -96.72,-17.54 -127.7,-50.73c-31.6,-33.87 -48.3,-83.22 -48.3,-142.72c0,-56.05 21.48,-118.55 58.93,-171.55c36.72,-52 80.48,-83 117.07,-83s80.35,31 117.07,83c37.45,53 58.93,115.5 58.93,171.55c0,59.5 -16.7,108.85 -48.3,142.72c-30.98,33.19 -75.13,50.73 -127.7,50.73z" id="svg_1" fill="#FFB27C"/>
  <path d="m252,44.2c0,0 0,1 0,2c0,1 0,2 0,3c0,1 0,3 0,3c0,2 0,3 0,4c0,0 0,1 0,2c0,1 -1,2 -4,2c-3,0 -4,1 -4,2c0,1 -0.4595,2.0535 0,4c0.51375,2.17625 1.07613,2.61732 2,3c1.30656,0.5412 0.82375,2.48626 3,3c4.86624,1.14877 9,1 11,1c0,0 0,1 0,2c0,1 0.30655,2.4588 -1,3c-0.92389,0.38268 -0.82376,1.48626 -3,2c-0.97325,0.22975 -3,0 -4,0c-1,0 -2,0 -2,0c-1,0 -1,1 -1,2c0,1 0,2 0,2c-1,0 -1,2 -1,2c0,1 -1,2 -2,2c-1,0 -2,0 -2,1c0,1 0,1 -1,1c-2,0 -3,0 -3,0l-1,0" id="svg_36" stroke-width="3" stroke="#845335" fill="none"/>
 </g>
</svg>