<svg width="512" height="512" xmlns="http://www.w3.org/2000/svg">
 <title>Egg</title>

 <g>
  <title>Layer 1</title>
  <path d="m256,480c-52.57,0 -96.72,-17.54 -127.7,-50.73c-31.6,-33.87 -48.3,-83.22 -48.3,-142.72c0,-56.05 21.48,-118.55 58.93,-171.55c36.72,-52 80.48,-83 117.07,-83s80.35,31 117.07,83c37.45,53 58.93,115.5 58.93,171.55c0,59.5 -16.7,108.85 -48.3,142.72c-30.98,33.19 -75.13,50.73 -127.7,50.73z" id="svg_1" fill="#FFB27C"/>
  <path d="m252,44.2c0,0 0,1 0,2c0,1 0,2 0,3c0,1 0,3 0,3c0,2 0,3 0,4c0,0 0,1 0,2c0,1 -1,2 -4,2c-3,0 -4,1 -4,2c0,1 -0.4595,2.0535 0,4c0.51375,2.17625 1.07613,2.61732 2,3c1.30656,0.5412 0.82375,2.48626 3,3c4.86624,1.14877 9,1 11,1c0,0 0,1 0,2c0,1 0.30655,2.4588 -1,3c-0.92389,0.38268 -0.82376,1.48626 -3,2c-0.97325,0.22975 -3,0 -4,0c-1,0 -2,0 -2,0c-1,0 -1,1 -1,2c0,1 0,2 0,2c-1,0 -1,2 -1,2c0,1 -1,2 -2,2c-1,0 -2,0 -2,1c0,1 0,1 -1,1c-2,0 -3,0 -3,0l-1,0" id="svg_36" stroke-width="3" stroke="#845335" fill="none"/>
  <path d="m264,42.6c0,0 0,-1 0,-1c4,0 7,0 10,0c2,0 2,0 2,1c0,0 0,2 0,3c0,1 0,3 0,5c0,1 -0.4595,4.0535 0,6c0.51373,2.17625 2.38269,2.07612 2,3c-0.5412,1.30656 -1,2 -1,3c0,0 0,1 0,4c0,0 0,2 0,3c0,1 -0.22977,1.02675 0,2c0.51373,2.17625 2,3 3,4l0,1l1,1" id="svg_37" stroke-width="3" stroke="#845335" fill="none"/>
  <path d="m214,51.6c-1,0 -3.41208,-0.03145 -7,2c-1.23065,0.69678 -2,1 -2,2c0,1 0,2 0,3c0,0 0.69255,0.18601 2,2c0.8269,1.14727 1,1 1,2c0,0 0,1 0,2c0,1 0,2 0,3c0,1 0,2 -1,2c-1,0 -2,1 -2,1c0,1 0,2 0,3c0,1 0.29289,0.29289 1,1c0.70711,0.70711 2.07613,1.61732 3,2c1.30656,0.5412 0.70711,1.29289 0,2c-0.70711,0.70711 -1,0 -2,0c0,0 -0.38269,1.07612 0,2c0.5412,1.30656 1,2 1,2c0,1 0.07613,1.61732 1,2c1.30656,0.5412 2,2 3,2c0,0 2.0535,1.5405 4,2c2.17625,0.51374 2,2 2,2c0,1 0,2 0,3c0,1 -0.4588,0.69344 -1,2c-0.38269,0.92388 -1,1 -1,2c0,1 0,1 0,2c0,1 -1,1 -4,1c-4,0 -8,0 -8,0c-1,0 -1.29289,-1.29289 -2,-2c-0.70711,-0.70711 -1.29289,0.70711 -2,0c-0.70711,-0.70711 0.14726,-3.1731 -1,-4c-1.814,-1.30745 -3,-2 -3,-2c-1,0 -0.29289,1.29289 -1,2c-0.70711,0.70711 -0.61731,1.07612 -1,2c-0.5412,1.30656 -1,2 -1,5c0,2 0.61731,3.07612 1,4c0.5412,1.30656 2,1 2,1c2,2 1.69344,3.4588 3,4c0.92387,0.38268 0.29289,1.29289 1,2c0.70711,0.70711 1,1 1,2c0,0 0,1 1,2c2,2 2.4588,1.69344 3,3c0.38269,0.92388 0,2 0,3c0,1 -0.14935,1.47427 -1,2c-1.90211,1.17557 -3,2 -4,2c0,0 0,0 0,1c0,1.00001 0,2.00001 0,3.00001c0,0 -0.07613,0.61731 -1,1c-1.30656,0.5412 -3,3 -3,3c0,1 0,2 0,3c0,1 0,1 -1,1l-1,0l-1,1l-1,0" id="svg_39" stroke-width="3" stroke="#845335" fill="none"/>
  <path d="m248,82.6c1,0 0.69255,0.186 2,2c0.8269,1.14727 2,1 2,2c0,0 0,1 0,2c0,1 -0.38269,2.07612 0,3c1.0824,2.61313 3.69344,3.4588 5,4c0.92389,0.38268 1.4588,0.69344 2,2c0.38269,0.92388 1,1 1,2c0,1 0.69345,2.4588 2,3c0.92389,0.38268 2,0 2,0c0,1 1.4588,1.69344 2,3c0.38269,0.92388 -0.38269,1.07612 0,2c1.0824,2.61313 4.29871,1.94854 6,3c1.9021,1.17557 2.70709,3.29289 2,4c-0.70709,0.70711 -1.85272,1.1731 -3,2c-1.814,1.30745 -3,2 -3,2c0,1 0,3 -1,4c0,0 0.70709,1.29289 0,2c-0.70709,0.70711 -2,2 -2,2c0,1 0,2.00001 0,3.00001c0,1 0,1 0,2c0,1 0,2 0,3c0,0 0,1 0,2c0,1 0,2 -1,2c0,0 -0.82376,1.48625 -3,2c-0.97324,0.22975 -1,1 -2,2c0,0 -0.69345,0.4588 -2,1c-0.92389,0.38269 -1.29289,0.29289 -2,1c-0.70711,0.70711 -1,1 -2,1c-1,0 -2.87868,2.12132 -5,0c-0.70711,-0.70711 -2,-2 -2,-3l0,0l-1,-1" id="svg_40" stroke-width="3" stroke="#845335" fill="none"/>
  <path d="m239,88.6c0,1 -2.05165,1.35927 -6,2c-3.12144,0.50654 -5.58578,-0.41422 -7,1c-0.70711,0.70711 0,3 0,3c0,1 0.69344,3.4588 2,4c0.92387,0.38268 2.29289,0.29289 3,1c0.70711,0.70711 -0.70711,2.29289 0,3c0.70711,0.70711 0.77025,1.02675 1,2c0.51375,2.17625 3.2565,1.797 4,3c1.66251,2.68999 2,3 2,3c0,1 0,2 1,4c0,0 -1.69344,3.4588 -3,4c-1.84776,0.76537 -2,1 -2,2c0,1 -0.69344,1.4588 -2,2c-1.84776,0.76537 -3,1 -3,2c0,1 0,2 0,2c0,1 -1,1 -1,3.00001c0,0 -1,1 -1,1c-1,1 -1.29289,2.29289 -2,3c-0.70711,0.70711 -1,1 -1,1c-1,0 -4,0 -6,0c-4,0 -6.29289,-0.70711 -7,0c-0.70711,0.70711 -0.61731,1.07613 -1,2c-0.5412,1.30656 -1.41885,3.41885 -3,5c-1.58115,1.58115 -3,2 -3,3c0,1 0,2 0,2c0,1 0,2 0,3l0,1l0,0" id="svg_41" stroke-width="3" stroke="#845335" fill="none"/>
  <path d="m276,64.6c0,1 0,1 2,1c3,0 7,0 10,0c2,0 3.4588,-0.30656 4,1c0.38269,0.92388 -0.58115,4.41886 1,6c1.58115,1.58114 3,2 5,3c2,1 2.07611,2.61732 3,3c2.61313,1.08239 2,3 2,4c0,0 0,2 0,4c0,1 1,1 1,3c0,1 0,1 0,2c0,1 0,3 0,4c0,1 -0.30655,3.4588 1,4c0.92389,0.38268 1,1 1,2c0,1 0,2 0,4c0,1 0,1 1,2c1,1 1.01291,1.83982 2,2c3.12143,0.50654 7.31,2.33749 10,4c1.203,0.7435 2,1 3,1c0,0 -0.38269,1.07612 0,2c0.5412,1.30656 2,2 2,2c1,2 1.29291,3.29289 2,4c1.41422,1.41422 2,1 4,3l2,1l2,2.00001l1,1" id="svg_42" stroke-width="3" stroke="#845335" fill="none"/>
  <polyline stroke-linecap="round" id="svg_43" points="612,153.60000000000002 612,153.60000000000002 " stroke-width="3" stroke="#845335" fill="none"/>
  <path d="m311,111.6c-1,0 -1,1 -2,3c-1,2 -3.71411,8.21168 -6,11c-0.89661,1.09367 -0.61731,2.07612 -1,3.00001c-0.5412,1.30656 -1,2 -1,2c0,1 0,3 0,4c0,1 0,2 0,3c0,1 0.22977,1.02675 0,2c-0.51373,2.17625 -1,3 -1,3c0,1 0.16019,3.01291 0,4c-0.50653,3.12144 -1,4 -1,5c0,2 0,4 0,6c0,1 1,1 1,2c0,1 2.41885,1.41885 4,3c1.58115,1.58115 2,3 3,4c0,0 -0.05145,0.29869 1,2c1.17557,1.90211 2.07611,1.61731 3,2c1.30655,0.5412 0.29291,2.29289 1,3c0.70709,0.70711 2,1 2,2c0,1 0,2 0,4c0,3 2,7 2,7c0,1 1,3 1,4c0,0 0,1 0,2c0,1 0,2 0,2c-1,0 -1,0 -2,1l-1,0l-1,0" id="svg_44" stroke-width="3" stroke="#845335" fill="none"/>
  <path d="m282,96.6c-1,0 -1,1 -1,2c0,0 0,1 0,3c0,1 0,3 0,5c0,0 0.22977,3.02675 0,4c-0.51373,2.17625 -2,4 -2,5c0,3 0,5 0,7c0,2 1,3 1,4c0,0 0.9176,3.38688 2,6.00001c0.38269,0.92387 0.29291,1.29289 1,2c0.70709,0.70711 0,2 0,4c0,0 0,2 0,4c0,0 0,1 0,2c0,1 0,2 0,2c0,2 0.48627,3.82375 1,6c0.22977,0.97325 0,2 -1,2c-3,0 -6.48627,-0.17625 -7,2c-0.22977,0.97325 0,2 0,2c0,1 0,2 0,2c-1,1 -1,2 -4,2c0,0 -1,0 -2,0c-2,0 -5,0 -6,0c0,0 -1,0 -2,0c-2,0 -1.0979,-2.82443 -3,-4c-0.85065,-0.52573 -2,0 -3,0c0,0 -1,0 -2,0c-1,0 -2,-1 -4,-1c-3,0 -6,0 -6,1c0,0 0,2 0,3c0,1 0,2 0,4c0,1 -0.38269,3.07613 0,4c0.5412,1.30656 2.76993,2.54863 7,4c4.82303,1.65482 5.1731,0.85274 6,2c1.30746,1.814 2,2 3,3c0,0 0.00388,-0.12427 2,0c8.04669,0.50096 21.95331,3.49904 30,4c1.99612,0.12427 -4.64886,-1.80423 -7,2c-0.52573,0.85065 -1.14804,2.22836 0,5c1.0824,2.61313 3.07516,2.28473 -4,4c-4.95547,1.20139 -5,3 -5,4c0,4 3,8 5,10c2,2 2.5405,3.0535 3,5c0.51373,2.17625 3,3 4,5c0,0 0,1 0,1c0,1 1,3 8,5l6,0" id="svg_45" stroke-width="3" stroke="#845335" fill="none"/>
  <path d="m320,81.6c0,-1 2.09021,-1.94554 7,-1c5.28799,1.01837 7,3 7,4c0,2 -0.9176,2.38687 -2,5c-0.38269,0.92388 -1,2 -1,3c0,1 0,2 0,4c0,2 -0.76538,4.15224 0,6c0.5412,1.30656 1,2 1,3c0,1 0,1 0,2c0,2 3.8858,4.32423 12,7c6.91388,2.27995 12,5 12,4c0,-6 -7.29291,-0.70711 -8,0c-0.70709,0.70711 0.0535,3.5405 2,4c2.17624,0.51374 0,1 0,3c0,1 -0.28589,2.21168 2,5.00001c1.79318,2.18735 3,3 4,4c0,0 0,2 -1,4c0,0 0,1 0,3c0,2 1.52573,5.14935 1,6c-2.35114,3.80423 -11.74673,0.37134 -16,3c-1.9021,1.17557 -0.29593,4.9561 8,7c7.82819,1.92865 15,4 15,2c0,-2 2.31,1.33749 5,3c1.203,0.7435 1.22977,2.02675 1,3c-0.51373,2.17625 -1.29291,2.29289 -2,3c-0.70709,0.70711 0,0 0,-2c0,-6 2.88052,-8.95782 5,-15c0.66202,-1.88725 1.29291,-3.29289 2,-4c0.70709,-0.70711 -0.9176,-2.38687 -2,-5c-1.14804,-2.77164 0,-4 0,-4c1,0 4.6297,-1.37511 8,1c2.94724,2.07697 3.4588,2.69344 4,4c0.38269,0.92387 0,3 0,3c0,3 0,5 0,7c0,1 0,2 0,5c0,1 0,6 0,10c0,3 0,5 0,6c0,0 0.1731,0.85274 1,2c1.30746,1.814 2.38687,4.9176 5,6c2.77164,1.14806 6,0 8,0l1,0l0,0" id="svg_46" stroke-width="3" stroke="#845335" fill="none"/>
  <path d="m172,102.6c0,0 -2.82443,-0.90211 -4,1c-1.05147,1.7013 -0.94554,4.09022 0,9c1.01837,5.28799 3.4588,6.69344 4,8c0.38269,0.92388 -1.50432,-0.40601 -6,2c-1.24687,0.6673 -1.94868,3.15395 -1,6.00001c1.58115,4.74342 6,5.58578 6,7c0,1.41422 -3,3 -3,3c0,2 0.4588,3.69344 1,5c0.38269,0.92387 0.54951,2.45049 -2,5c-2.54951,2.54951 -3,3 -3,5c0,1 0,4 0,5c0,1 -0.87856,1.49345 -4,2c-3.94835,0.64073 -8.29289,0.70711 -9,0c-0.70711,-0.70711 0,-2 0,-2c0,-3 0.94371,-5.23665 0,-7c-1.70131,-3.17892 -5.58578,-3.41422 -7,-2c-0.70711,0.70711 0,1 0,1c-2,0 -4,0 -5,0c-1,0 -3.58578,-1.41422 -5,0c-0.70711,0.70711 0,3 0,5c0,3 0,4 0,5c0,1 -0.79393,3.08743 -3,8c-0.91602,2.03983 0.41422,4.58578 -1,6c-0.70711,0.70711 -2,0 -2,1l-2,3l0,0" id="svg_47" stroke-width="3" stroke="#845335" fill="none"/>
  <path d="m189,95.6c0,-1 1.80144,-1.97478 -1,-5c-2.14861,-2.32024 -6,-2 -7,-2c-1,0 -1,0 -6,0c-3,0 -3,0 -3,-1c0,-1 -1,-1 -1,-1c-1,-2 -1,-3 -1,-4l0,0l0,-1l0,-1" id="svg_48" stroke-width="3" stroke="#845335" fill="none"/>
  <path d="m172,136.60001c0,0 1.38687,0.9176 4,2c3.69551,1.53073 5.29289,1.29289 6,2c0.70711,0.70711 0.16019,2.01291 0,3c-0.50655,3.12144 -2,6 -2,7c0,1 -0.47984,3.32367 1,5c2.38617,2.703 5.4588,2.69344 6,4c0.38269,0.92387 0,3 0,3c1,2 1.69344,3.4588 3,4c0.92387,0.38269 0.92807,0.61104 3,3c1.46507,1.68924 4.17557,2.09789 3,4c-0.52573,0.85065 -3.08264,-0.30554 -11,2c-3.03616,0.88414 -3.38269,2.07613 -3,3c1.62358,3.91969 7.29869,3.82108 9,7c0.47186,0.88167 0,2 0,4c0,2 0,3 -2,5c-1,1 -3.09789,1.82443 -5,3c-1.70131,1.05147 -4,1 -4,2l0,1l-1,0l-1,0" id="svg_49" stroke-width="3" stroke="#845335" fill="none"/>
  <path d="m217,135.60001c1,0 0.61731,1.07613 1,2c0.5412,1.30656 1,2 1,4c0,3 0,7 -1,10c-1,3 -1,4 -1,6c0,1 0,3 1,4c1,1 2,3 2,4c0,1 0,1 0,2c0,2 -0.68925,4.08025 0,7c1.02748,4.35251 5.9176,7.38687 7,10c0.38269,0.92387 -1,2 -1,4c0,2 0,3 0,5c0,1 0,4 0,7c0,2 -2,4 -3,5l-1,1" id="svg_50" stroke-width="3" stroke="#845335" fill="none"/>
  <path d="m240,65.6c-1,0 -2.02582,0.32037 -4,0c-3.12144,-0.50654 -8.133,-1.5695 -12,-3c-4.19435,-1.55159 -5,-3 -5,-4c0,0 0,-1 0,-2c0,-2 0,-3 0,-4c0,-2 0,-2 0,-4c0,-2 0,-2 0,-3c0,-1 0,-3 0,-3l0,-2" id="svg_51" stroke-width="3" stroke="#845335" fill="none"/>
  <path d="m275,57.6c1,1 1,1 2,1c3,0 7,-1 9,-1c1,0 2.22836,0.14805 5,-1c2.61313,-1.08239 3,-2 3,-2c0,-2 0,-3 0,-4l0,0" id="svg_52" stroke-width="3" stroke="#845335" fill="none"/>
 </g>
</svg>