<svg width="512" height="512" xmlns="http://www.w3.org/2000/svg">
 <title>Egg</title>

 <g>
  <title>Layer 1</title>
  <path d="m256,480c-52.57,0 -96.72,-17.54 -127.7,-50.73c-31.6,-33.87 -48.3,-83.22 -48.3,-142.72c0,-56.05 21.48,-118.55 58.93,-171.55c36.72,-52 80.48,-83 117.07,-83s80.35,31 117.07,83c37.45,53 58.93,115.5 58.93,171.55c0,59.5 -16.7,108.85 -48.3,142.72c-30.98,33.19 -75.13,50.73 -127.7,50.73z" id="svg_1" fill="#FFB27C"/>
  <path d="m252,44.2c0,0 0,1 0,2c0,1 0,2 0,3c0,1 0,3 0,3c0,2 0,3 0,4c0,0 0,1 0,2c0,1 -1,2 -4,2c-3,0 -4,1 -4,2c0,1 -0.4595,2.0535 0,4c0.51375,2.17625 1.07613,2.61732 2,3c1.30656,0.5412 0.82375,2.48626 3,3c4.86624,1.14877 9,1 11,1c0,0 0,1 0,2c0,1 0.30655,2.4588 -1,3c-0.92389,0.38268 -0.82376,1.48626 -3,2c-0.97325,0.22975 -3,0 -4,0c-1,0 -2,0 -2,0c-1,0 -1,1 -1,2c0,1 0,2 0,2c-1,0 -1,2 -1,2c0,1 -1,2 -2,2c-1,0 -2,0 -2,1c0,1 0,1 -1,1c-2,0 -3,0 -3,0l-1,0" id="svg_36" stroke-width="3" stroke="#845335" fill="none"/>
  <path d="m264,42.6c0,0 0,-1 0,-1c4,0 7,0 10,0c2,0 2,0 2,1c0,0 0,2 0,3c0,1 0,3 0,5c0,1 -0.4595,4.0535 0,6c0.51373,2.17625 2.38269,2.07612 2,3c-0.5412,1.30656 -1,2 -1,3c0,0 0,1 0,4c0,0 0,2 0,3c0,1 -0.22977,1.02675 0,2c0.51373,2.17625 2,3 3,4l0,1l1,1" id="svg_37" stroke-width="3" stroke="#845335" fill="none"/>
  <path d="m214,51.6c-1,0 -3.41208,-0.03145 -7,2c-1.23065,0.69678 -2,1 -2,2c0,1 0,2 0,3c0,0 0.69255,0.18601 2,2c0.8269,1.14727 1,1 1,2c0,0 0,1 0,2c0,1 0,2 0,3c0,1 0,2 -1,2c-1,0 -2,1 -2,1c0,1 0,2 0,3c0,1 0.29289,0.29289 1,1c0.70711,0.70711 2.07613,1.61732 3,2c1.30656,0.5412 0.70711,1.29289 0,2c-0.70711,0.70711 -1,0 -2,0c0,0 -0.38269,1.07612 0,2c0.5412,1.30656 1,2 1,2c0,1 0.07613,1.61732 1,2c1.30656,0.5412 2,2 3,2c0,0 2.0535,1.5405 4,2c2.17625,0.51374 2,2 2,2c0,1 0,2 0,3c0,1 -0.4588,0.69344 -1,2c-0.38269,0.92388 -1,1 -1,2c0,1 0,1 0,2c0,1 -1,1 -4,1c-4,0 -8,0 -8,0c-1,0 -1.29289,-1.29289 -2,-2c-0.70711,-0.70711 -1.29289,0.70711 -2,0c-0.70711,-0.70711 0.14726,-3.1731 -1,-4c-1.814,-1.30745 -3,-2 -3,-2c-1,0 -0.29289,1.29289 -1,2c-0.70711,0.70711 -0.61731,1.07612 -1,2c-0.5412,1.30656 -1,2 -1,5c0,2 0.61731,3.07612 1,4c0.5412,1.30656 2,1 2,1c2,2 1.69344,3.4588 3,4c0.92387,0.38268 0.29289,1.29289 1,2c0.70711,0.70711 1,1 1,2c0,0 0,1 1,2c2,2 2.4588,1.69344 3,3c0.38269,0.92388 0,2 0,3c0,1 -0.14935,1.47427 -1,2c-1.90211,1.17557 -3,2 -4,2c0,0 0,0 0,1c0,1.00001 0,2.00001 0,3.00001c0,0 -0.07613,0.61731 -1,1c-1.30656,0.5412 -3,3 -3,3c0,1 0,2 0,3c0,1 0,1 -1,1l-1,0l-1,1l-1,0" id="svg_39" stroke-width="3" stroke="#845335" fill="none"/>
  <path d="m248,82.6c1,0 0.69255,0.186 2,2c0.8269,1.14727 2,1 2,2c0,0 0,1 0,2c0,1 -0.38269,2.07612 0,3c1.0824,2.61313 3.69344,3.4588 5,4c0.92389,0.38268 1.4588,0.69344 2,2c0.38269,0.92388 1,1 1,2c0,1 0.69345,2.4588 2,3c0.92389,0.38268 2,0 2,0c0,1 1.4588,1.69344 2,3c0.38269,0.92388 -0.38269,1.07612 0,2c1.0824,2.61313 4.29871,1.94854 6,3c1.9021,1.17557 2.70709,3.29289 2,4c-0.70709,0.70711 -1.85272,1.1731 -3,2c-1.814,1.30745 -3,2 -3,2c0,1 0,3 -1,4c0,0 0.70709,1.29289 0,2c-0.70709,0.70711 -2,2 -2,2c0,1 0,2.00001 0,3.00001c0,1 0,1 0,2c0,1 0,2 0,3c0,0 0,1 0,2c0,1 0,2 -1,2c0,0 -0.82376,1.48625 -3,2c-0.97324,0.22975 -1,1 -2,2c0,0 -0.69345,0.4588 -2,1c-0.92389,0.38269 -1.29289,0.29289 -2,1c-0.70711,0.70711 -1,1 -2,1c-1,0 -2.87868,2.12132 -5,0c-0.70711,-0.70711 -2,-2 -2,-3l0,0l-1,-1" id="svg_40" stroke-width="3" stroke="#845335" fill="none"/>
  <path d="m239,88.6c0,1 -2.05165,1.35927 -6,2c-3.12144,0.50654 -5.58578,-0.41422 -7,1c-0.70711,0.70711 0,3 0,3c0,1 0.69344,3.4588 2,4c0.92387,0.38268 2.29289,0.29289 3,1c0.70711,0.70711 -0.70711,2.29289 0,3c0.70711,0.70711 0.77025,1.02675 1,2c0.51375,2.17625 3.2565,1.797 4,3c1.66251,2.68999 2,3 2,3c0,1 0,2 1,4c0,0 -1.69344,3.4588 -3,4c-1.84776,0.76537 -2,1 -2,2c0,1 -0.69344,1.4588 -2,2c-1.84776,0.76537 -3,1 -3,2c0,1 0,2 0,2c0,1 -1,1 -1,3.00001c0,0 -1,1 -1,1c-1,1 -1.29289,2.29289 -2,3c-0.70711,0.70711 -1,1 -1,1c-1,0 -4,0 -6,0c-4,0 -6.29289,-0.70711 -7,0c-0.70711,0.70711 -0.61731,1.07613 -1,2c-0.5412,1.30656 -1.41885,3.41885 -3,5c-1.58115,1.58115 -3,2 -3,3c0,1 0,2 0,2c0,1 0,2 0,3l0,1l0,0" id="svg_41" stroke-width="3" stroke="#845335" fill="none"/>
  <path d="m276,64.6c0,1 0,1 2,1c3,0 7,0 10,0c2,0 3.4588,-0.30656 4,1c0.38269,0.92388 -0.58115,4.41886 1,6c1.58115,1.58114 3,2 5,3c2,1 2.07611,2.61732 3,3c2.61313,1.08239 2,3 2,4c0,0 0,2 0,4c0,1 1,1 1,3c0,1 0,1 0,2c0,1 0,3 0,4c0,1 -0.30655,3.4588 1,4c0.92389,0.38268 1,1 1,2c0,1 0,2 0,4c0,1 0,1 1,2c1,1 1.01291,1.83982 2,2c3.12143,0.50654 7.31,2.33749 10,4c1.203,0.7435 2,1 3,1c0,0 -0.38269,1.07612 0,2c0.5412,1.30656 2,2 2,2c1,2 1.29291,3.29289 2,4c1.41422,1.41422 2,1 4,3l2,1l2,2.00001l1,1" id="svg_42" stroke-width="3" stroke="#845335" fill="none"/>
  <polyline stroke-linecap="round" id="svg_43" points="612,153.60000000000002 612,153.60000000000002 " stroke-width="3" stroke="#845335" fill="none"/>
 </g>
</svg>